<mxfile host="65bd71144e">
    <diagram id="EvAmm1Pr7eUSJJGLMQvF" name="Diagrama General">
        <mxGraphModel dx="673" dy="168" grid="1" gridSize="10" guides="1" tooltips="1" connect="1" arrows="1" fold="1" page="1" pageScale="1" pageWidth="827" pageHeight="1169" math="0" shadow="0">
            <root>
                <mxCell id="0"/>
                <mxCell id="1" parent="0"/>
                <mxCell id="5" style="vsdxID=310000;fillColor=#f5f5f5;strokeColor=#666666;spacingTop=-3;spacingBottom=-3;spacingLeft=-3;spacingRight=-3;labelBackgroundColor=none;rounded=0;html=1;whiteSpace=wrap;fontColor=#333333;verticalAlign=top;" vertex="1" parent="1">
                    <mxGeometry x="40" y="80" width="140" height="368" as="geometry"/>
                </mxCell>
                <mxCell id="6" value="&lt;font style=&quot;font-size: 11px ; font-family: &amp;#34;helvetica&amp;#34; ; color: #000000 ; direction: ltr ; letter-spacing: 0px ; line-height: 120% ; opacity: 1&quot;&gt;Usuario&lt;br&gt;&lt;br&gt;&lt;/font&gt;" style="verticalAlign=top;align=center;vsdxID=3;shape=stencil(UzV2Ls5ILEhVNTIoLinKz04tz0wpyVA1dlE1MsrMy0gtyiwBslSNXVWNndPyi1LTi/JL81Ig/IJEkEoQKze/DGRCBUSfAUiHkUElhGehZ2gKFnCDqM3JzMOp1gC3QkMDspWiuwDIQDg9LTMnB+JzuDz1/QVzEVHOJUkxuivIdzFJoYYWYkAGeuIACkESlrErAA==);spacingTop=-3;spacingBottom=-3;spacingLeft=-3;spacingRight=-3;labelBackgroundColor=none;rounded=0;html=1;whiteSpace=wrap;fillColor=#f5f5f5;strokeColor=#666666;fontColor=#333333;" vertex="1" parent="5">
                    <mxGeometry width="140" height="368" as="geometry"/>
                </mxCell>
                <mxCell id="7" value="&lt;font style=&quot;font-size: 11px ; font-family: &amp;#34;helvetica&amp;#34; ; color: #000000 ; direction: ltr ; letter-spacing: 0px ; line-height: 120% ; opacity: 1&quot;&gt;Id(PK)&amp;nbsp; &lt;/font&gt;&lt;font style=&quot;font-size: 11px ; font-family: &amp;#34;helvetica&amp;#34; ; direction: ltr ; letter-spacing: 0px ; line-height: 120% ; opacity: 1&quot; color=&quot;#0000ff&quot;&gt;Int AutoIncrement&lt;/font&gt;" style="verticalAlign=middle;align=center;vsdxID=15;fillColor=none;gradientColor=none;shape=stencil(nZBRDoQgDERP03+WHsHFe5iISyOCQdT19kIaIxq//Jtp3zTpAFaTaUYNUkwx+F6v1EYD+AUpyRkdKCYFqACrzgf9C352LfuxyWRWg1/yhT/nRE5IsZWuZtCSK8CPeI0e/hF+jV7AJM4PO7KWCyr390bSiNtEtQM=);strokeColor=none;spacingTop=-3;spacingBottom=-3;spacingLeft=-3;spacingRight=-3;labelBackgroundColor=none;rounded=0;html=1;whiteSpace=wrap;" vertex="1" parent="5">
                    <mxGeometry y="30" width="140" height="26" as="geometry"/>
                </mxCell>
                <mxCell id="8" value="&lt;font style=&quot;font-size: 11px ; font-family: &amp;#34;helvetica&amp;#34; ; color: #000000 ; direction: ltr ; letter-spacing: 0px ; line-height: 120% ; opacity: 1&quot;&gt;fullName &lt;/font&gt;&lt;font style=&quot;font-size: 11px ; font-family: &amp;#34;helvetica&amp;#34; ; direction: ltr ; letter-spacing: 0px ; line-height: 120% ; opacity: 1&quot; color=&quot;#00cc00&quot;&gt;String&lt;/font&gt;" style="verticalAlign=middle;align=center;vsdxID=16;fillColor=none;gradientColor=none;shape=stencil(nZBRDoQgDERP03+WHsHFe5iISyOCQdT19kIaIxq//Jtp3zTpAFaTaUYNUkwx+F6v1EYD+AUpyRkdKCYFqACrzgf9C352LfuxyWRWg1/yhT/nRE5IsZWuZtCSK8CPeI0e/hF+jV7AJM4PO7KWCyr390bSiNtEtQM=);strokeColor=none;spacingTop=-3;spacingBottom=-3;spacingLeft=-3;spacingRight=-3;labelBackgroundColor=none;rounded=0;html=1;whiteSpace=wrap;" vertex="1" parent="5">
                    <mxGeometry y="56" width="140" height="26" as="geometry"/>
                </mxCell>
                <mxCell id="9" value="&lt;font style=&quot;font-size: 11px ; font-family: &amp;#34;helvetica&amp;#34; ; color: #000000 ; direction: ltr ; letter-spacing: 0px ; line-height: 120% ; opacity: 1&quot;&gt;userName &lt;/font&gt;&lt;font style=&quot;font-size: 11px ; font-family: &amp;#34;helvetica&amp;#34; ; direction: ltr ; letter-spacing: 0px ; line-height: 120% ; opacity: 1&quot; color=&quot;#00cc00&quot;&gt;String&lt;/font&gt;" style="verticalAlign=middle;align=center;vsdxID=17;fillColor=none;gradientColor=none;shape=stencil(nZBRDoQgDERP03+WHsHFe5iISyOCQdT19kIaIxq//Jtp3zTpAFaTaUYNUkwx+F6v1EYD+AUpyRkdKCYFqACrzgf9C352LfuxyWRWg1/yhT/nRE5IsZWuZtCSK8CPeI0e/hF+jV7AJM4PO7KWCyr390bSiNtEtQM=);strokeColor=none;spacingTop=-3;spacingBottom=-3;spacingLeft=-3;spacingRight=-3;labelBackgroundColor=none;rounded=0;html=1;whiteSpace=wrap;" vertex="1" parent="5">
                    <mxGeometry y="82" width="140" height="26" as="geometry"/>
                </mxCell>
                <mxCell id="10" value="&lt;font style=&quot;font-size: 11px ; font-family: &amp;#34;helvetica&amp;#34; ; color: #000000 ; direction: ltr ; letter-spacing: 0px ; line-height: 120% ; opacity: 1&quot;&gt;dni &lt;/font&gt;&lt;font style=&quot;font-size: 11px ; font-family: &amp;#34;helvetica&amp;#34; ; direction: ltr ; letter-spacing: 0px ; line-height: 120% ; opacity: 1&quot; color=&quot;#00cc00&quot;&gt;String&lt;/font&gt;" style="verticalAlign=middle;align=center;vsdxID=18;fillColor=none;gradientColor=none;shape=stencil(nZBRDoQgDERP03+WHsHFe5iISyOCQdT19kIaIxq//Jtp3zTpAFaTaUYNUkwx+F6v1EYD+AUpyRkdKCYFqACrzgf9C352LfuxyWRWg1/yhT/nRE5IsZWuZtCSK8CPeI0e/hF+jV7AJM4PO7KWCyr390bSiNtEtQM=);strokeColor=none;spacingTop=-3;spacingBottom=-3;spacingLeft=-3;spacingRight=-3;labelBackgroundColor=none;rounded=0;html=1;whiteSpace=wrap;" vertex="1" parent="5">
                    <mxGeometry y="108" width="140" height="26" as="geometry"/>
                </mxCell>
                <mxCell id="11" value="&lt;font style=&quot;font-size: 11px ; font-family: &amp;#34;helvetica&amp;#34; ; color: #000000 ; direction: ltr ; letter-spacing: 0px ; line-height: 120% ; opacity: 1&quot;&gt;email &lt;/font&gt;&lt;font style=&quot;font-size: 11px ; font-family: &amp;#34;helvetica&amp;#34; ; direction: ltr ; letter-spacing: 0px ; line-height: 120% ; opacity: 1&quot; color=&quot;#00cc00&quot;&gt;String&lt;/font&gt;" style="verticalAlign=middle;align=center;vsdxID=19;fillColor=none;gradientColor=none;shape=stencil(nZBRDoQgDERP03+WHsHFe5iISyOCQdT19kIaIxq//Jtp3zTpAFaTaUYNUkwx+F6v1EYD+AUpyRkdKCYFqACrzgf9C352LfuxyWRWg1/yhT/nRE5IsZWuZtCSK8CPeI0e/hF+jV7AJM4PO7KWCyr390bSiNtEtQM=);strokeColor=none;spacingTop=-3;spacingBottom=-3;spacingLeft=-3;spacingRight=-3;labelBackgroundColor=none;rounded=0;html=1;whiteSpace=wrap;" vertex="1" parent="5">
                    <mxGeometry y="134" width="140" height="26" as="geometry"/>
                </mxCell>
                <mxCell id="12" value="&lt;font style=&quot;font-size: 11px ; font-family: &amp;#34;helvetica&amp;#34; ; color: #000000 ; direction: ltr ; letter-spacing: 0px ; line-height: 120% ; opacity: 1&quot;&gt;domicilio &lt;/font&gt;&lt;font style=&quot;font-size: 11px ; font-family: &amp;#34;helvetica&amp;#34; ; direction: ltr ; letter-spacing: 0px ; line-height: 120% ; opacity: 1&quot; color=&quot;#00cc00&quot;&gt;String&lt;/font&gt;" style="verticalAlign=middle;align=center;vsdxID=20;fillColor=none;gradientColor=none;shape=stencil(nZBRDoQgDERP03+WHsHFe5iISyOCQdT19kIaIxq//Jtp3zTpAFaTaUYNUkwx+F6v1EYD+AUpyRkdKCYFqACrzgf9C352LfuxyWRWg1/yhT/nRE5IsZWuZtCSK8CPeI0e/hF+jV7AJM4PO7KWCyr390bSiNtEtQM=);strokeColor=none;spacingTop=-3;spacingBottom=-3;spacingLeft=-3;spacingRight=-3;labelBackgroundColor=none;rounded=0;html=1;whiteSpace=wrap;" vertex="1" parent="5">
                    <mxGeometry y="160" width="140" height="26" as="geometry"/>
                </mxCell>
                <mxCell id="13" value="&lt;font style=&quot;font-size: 11px ; font-family: &amp;#34;helvetica&amp;#34; ; color: #000000 ; direction: ltr ; letter-spacing: 0px ; line-height: 120% ; opacity: 1&quot;&gt;provincia&amp;nbsp;&lt;/font&gt;&lt;span style=&quot;color: rgb(0 , 204 , 0) ; font-family: &amp;#34;helvetica&amp;#34; ; font-size: 11px&quot;&gt;String&lt;/span&gt;" style="verticalAlign=middle;align=center;vsdxID=21;fillColor=none;gradientColor=none;shape=stencil(nZBRDoQgDERP03+WHsHFe5iISyOCQdT19kIaIxq//Jtp3zTpAFaTaUYNUkwx+F6v1EYD+AUpyRkdKCYFqACrzgf9C352LfuxyWRWg1/yhT/nRE5IsZWuZtCSK8CPeI0e/hF+jV7AJM4PO7KWCyr390bSiNtEtQM=);strokeColor=none;spacingTop=-3;spacingBottom=-3;spacingLeft=-3;spacingRight=-3;labelBackgroundColor=none;rounded=0;html=1;whiteSpace=wrap;" vertex="1" parent="5">
                    <mxGeometry y="186" width="140" height="26" as="geometry"/>
                </mxCell>
                <mxCell id="14" value="&lt;font style=&quot;font-size: 11px ; font-family: &amp;#34;helvetica&amp;#34; ; color: #000000 ; direction: ltr ; letter-spacing: 0px ; line-height: 120% ; opacity: 1&quot;&gt;ciudad&amp;nbsp;&lt;/font&gt;&lt;span style=&quot;color: rgb(0 , 204 , 0) ; font-family: &amp;#34;helvetica&amp;#34; ; font-size: 11px&quot;&gt;String&lt;/span&gt;" style="verticalAlign=middle;align=center;vsdxID=22;fillColor=none;gradientColor=none;shape=stencil(nZBRDoQgDERP03+WHsHFe5iISyOCQdT19kIaIxq//Jtp3zTpAFaTaUYNUkwx+F6v1EYD+AUpyRkdKCYFqACrzgf9C352LfuxyWRWg1/yhT/nRE5IsZWuZtCSK8CPeI0e/hF+jV7AJM4PO7KWCyr390bSiNtEtQM=);strokeColor=none;spacingTop=-3;spacingBottom=-3;spacingLeft=-3;spacingRight=-3;labelBackgroundColor=none;rounded=0;html=1;whiteSpace=wrap;" vertex="1" parent="5">
                    <mxGeometry y="212" width="140" height="26" as="geometry"/>
                </mxCell>
                <mxCell id="15" value="&lt;font style=&quot;font-size: 11px ; font-family: &amp;#34;helvetica&amp;#34; ; color: #000000 ; direction: ltr ; letter-spacing: 0px ; line-height: 120% ; opacity: 1&quot;&gt;password&amp;nbsp;&lt;/font&gt;&lt;span style=&quot;color: rgb(0 , 204 , 0) ; font-family: &amp;#34;helvetica&amp;#34; ; font-size: 11px&quot;&gt;String&lt;/span&gt;" style="verticalAlign=middle;align=center;vsdxID=23;fillColor=none;gradientColor=none;shape=stencil(nZBRDoQgDERP03+WHsHFe5iISyOCQdT19kIaIxq//Jtp3zTpAFaTaUYNUkwx+F6v1EYD+AUpyRkdKCYFqACrzgf9C352LfuxyWRWg1/yhT/nRE5IsZWuZtCSK8CPeI0e/hF+jV7AJM4PO7KWCyr390bSiNtEtQM=);strokeColor=none;spacingTop=-3;spacingBottom=-3;spacingLeft=-3;spacingRight=-3;labelBackgroundColor=none;rounded=0;html=1;whiteSpace=wrap;" vertex="1" parent="5">
                    <mxGeometry y="238" width="140" height="26" as="geometry"/>
                </mxCell>
                <mxCell id="17" value="&lt;font style=&quot;font-size: 11px ; font-family: &amp;#34;helvetica&amp;#34; ; color: #000000 ; direction: ltr ; letter-spacing: 0px ; line-height: 120% ; opacity: 1&quot;&gt;terminos&amp;nbsp;&lt;/font&gt;&lt;span style=&quot;color: rgb(0 , 204 , 0) ; font-family: &amp;#34;helvetica&amp;#34; ; font-size: 11px&quot;&gt;String&lt;/span&gt;" style="verticalAlign=middle;align=center;vsdxID=25;fillColor=none;gradientColor=none;shape=stencil(nZBRDoQgDERP03+WHsHFe5iISyOCQdT19kIaIxq//Jtp3zTpAFaTaUYNUkwx+F6v1EYD+AUpyRkdKCYFqACrzgf9C352LfuxyWRWg1/yhT/nRE5IsZWuZtCSK8CPeI0e/hF+jV7AJM4PO7KWCyr390bSiNtEtQM=);strokeColor=none;spacingTop=-3;spacingBottom=-3;spacingLeft=-3;spacingRight=-3;labelBackgroundColor=none;rounded=0;html=1;whiteSpace=wrap;" vertex="1" parent="5">
                    <mxGeometry y="264" width="140" height="26" as="geometry"/>
                </mxCell>
                <mxCell id="18" value="&lt;font style=&quot;font-size: 11px ; font-family: &amp;#34;helvetica&amp;#34; ; color: #000000 ; direction: ltr ; letter-spacing: 0px ; line-height: 120% ; opacity: 1&quot;&gt;avatar&amp;nbsp;&lt;/font&gt;&lt;span style=&quot;color: rgb(0 , 204 , 0) ; font-family: &amp;#34;helvetica&amp;#34; ; font-size: 11px&quot;&gt;String&lt;/span&gt;" style="verticalAlign=middle;align=center;vsdxID=26;fillColor=none;gradientColor=none;shape=stencil(nZBRDoQgDERP03+WHsHFe5iISyOCQdT19kIaIxq//Jtp3zTpAFaTaUYNUkwx+F6v1EYD+AUpyRkdKCYFqACrzgf9C352LfuxyWRWg1/yhT/nRE5IsZWuZtCSK8CPeI0e/hF+jV7AJM4PO7KWCyr390bSiNtEtQM=);strokeColor=none;spacingTop=-3;spacingBottom=-3;spacingLeft=-3;spacingRight=-3;labelBackgroundColor=none;rounded=0;html=1;whiteSpace=wrap;" vertex="1" parent="5">
                    <mxGeometry y="291" width="140" height="26" as="geometry"/>
                </mxCell>
                <mxCell id="WWabw4jxBIygo0n_5Nug-124" value="" style="edgeStyle=orthogonalEdgeStyle;rounded=0;orthogonalLoop=1;jettySize=auto;html=1;fontColor=#000000;" edge="1" parent="5" source="19" target="17">
                    <mxGeometry relative="1" as="geometry"/>
                </mxCell>
                <mxCell id="19" value="&lt;font style=&quot;font-size: 11px ; font-family: &amp;#34;helvetica&amp;#34; ; color: #000000 ; direction: ltr ; letter-spacing: 0px ; line-height: 120% ; opacity: 1&quot;&gt;admin &lt;/font&gt;&lt;font style=&quot;font-size: 11px ; font-family: &amp;#34;helvetica&amp;#34; ; direction: ltr ; letter-spacing: 0px ; line-height: 120% ; opacity: 1&quot; color=&quot;#ff0000&quot;&gt;Boolean&lt;/font&gt;" style="verticalAlign=middle;align=center;vsdxID=27;fillColor=none;gradientColor=none;shape=stencil(nZBRDoQgDERP03+WHsHFe5iISyOCQdT19kIaIxq//Jtp3zTpAFaTaUYNUkwx+F6v1EYD+AUpyRkdKCYFqACrzgf9C352LfuxyWRWg1/yhT/nRE5IsZWuZtCSK8CPeI0e/hF+jV7AJM4PO7KWCyr390bSiNtEtQM=);strokeColor=none;spacingTop=-3;spacingBottom=-3;spacingLeft=-3;spacingRight=-3;labelBackgroundColor=none;rounded=0;html=1;whiteSpace=wrap;" vertex="1" parent="5">
                    <mxGeometry y="316" width="140" height="26" as="geometry"/>
                </mxCell>
                <mxCell id="35" style="vsdxID=1010000;fillColor=#f5f5f5;strokeColor=#666666;spacingTop=-3;spacingBottom=-3;spacingLeft=-3;spacingRight=-3;labelBackgroundColor=none;rounded=0;html=1;whiteSpace=wrap;fontColor=#333333;" vertex="1" parent="1">
                    <mxGeometry x="340" y="10" width="140" height="238" as="geometry"/>
                </mxCell>
                <mxCell id="36" value="&lt;font style=&quot;font-size: 11px ; font-family: &amp;#34;helvetica&amp;#34; ; color: #000000 ; direction: ltr ; letter-spacing: 0px ; line-height: 120% ; opacity: 1&quot;&gt;Productos&lt;br&gt;&lt;br&gt;&lt;/font&gt;" style="verticalAlign=top;align=center;vsdxID=10;fillColor=#ffffff;gradientColor=none;shape=stencil(UzV2Ls5ILEhVNTIoLinKz04tz0wpyVA1dlE1MsrMy0gtyiwBslSNXVWNndPyi1LTi/JL81Ig/IJEkEoQKze/DGRCBUSfAUiHkUElhGdopGdmCBZxgyjOyczDqdgAt0JDA7KVYjgByEA4Pi0zJwfid7g8DXwGcxNxDiZJMbozKHAzaSGHFmpABnoSAQpBkpexKwA=);strokeColor=#000000;spacingTop=-3;spacingBottom=-3;spacingLeft=-3;spacingRight=-3;labelBackgroundColor=none;rounded=0;html=1;whiteSpace=wrap;" vertex="1" parent="35">
                    <mxGeometry width="140" height="238" as="geometry"/>
                </mxCell>
                <mxCell id="37" value="&lt;font style=&quot;letter-spacing: 0px ; font-size: 11px ; font-family: &amp;#34;helvetica&amp;#34; ; color: rgb(0 , 0 , 0) ; direction: ltr ; line-height: 13.2px ; opacity: 1&quot;&gt;Id(PK)&amp;nbsp;&amp;nbsp;&lt;/font&gt;&lt;font color=&quot;#0000ff&quot; style=&quot;letter-spacing: 0px ; font-size: 11px ; font-family: &amp;#34;helvetica&amp;#34; ; direction: ltr ; line-height: 13.2px ; opacity: 1&quot;&gt;Int AutoIncrement&lt;/font&gt;" style="verticalAlign=middle;align=center;vsdxID=41;fillColor=none;gradientColor=none;shape=stencil(nZBRDoQgDERP03+WHsHFe5iISyOCQdT19kIaIxq//Jtp3zTpAFaTaUYNUkwx+F6v1EYD+AUpyRkdKCYFqACrzgf9C352LfuxyWRWg1/yhT/nRE5IsZWuZtCSK8CPeI0e/hF+jV7AJM4PO7KWCyr390bSiNtEtQM=);strokeColor=none;spacingTop=-3;spacingBottom=-3;spacingLeft=-3;spacingRight=-3;labelBackgroundColor=none;rounded=0;html=1;whiteSpace=wrap;" vertex="1" parent="35">
                    <mxGeometry y="30" width="140" height="26" as="geometry"/>
                </mxCell>
                <mxCell id="38" value="&lt;font style=&quot;font-size: 11px ; font-family: &amp;#34;helvetica&amp;#34; ; color: #000000 ; direction: ltr ; letter-spacing: 0px ; line-height: 120% ; opacity: 1&quot;&gt;name&amp;nbsp;&lt;span style=&quot;color: rgb(0 , 204 , 0)&quot;&gt;String&lt;/span&gt;&lt;br&gt;&lt;/font&gt;" style="verticalAlign=middle;align=center;vsdxID=42;fillColor=none;gradientColor=none;shape=stencil(nZBRDoQgDERP03+WHsHFe5iISyOCQdT19kIaIxq//Jtp3zTpAFaTaUYNUkwx+F6v1EYD+AUpyRkdKCYFqACrzgf9C352LfuxyWRWg1/yhT/nRE5IsZWuZtCSK8CPeI0e/hF+jV7AJM4PO7KWCyr390bSiNtEtQM=);strokeColor=none;spacingTop=-3;spacingBottom=-3;spacingLeft=-3;spacingRight=-3;labelBackgroundColor=none;rounded=0;html=1;whiteSpace=wrap;" vertex="1" parent="35">
                    <mxGeometry y="56" width="140" height="26" as="geometry"/>
                </mxCell>
                <mxCell id="39" value="&lt;font style=&quot;font-size: 11px ; font-family: &amp;#34;helvetica&amp;#34; ; color: #000000 ; direction: ltr ; letter-spacing: 0px ; line-height: 120% ; opacity: 1&quot;&gt;description&amp;nbsp;&lt;/font&gt;&lt;span style=&quot;color: rgb(0 , 204 , 0) ; font-family: &amp;#34;helvetica&amp;#34; ; font-size: 11px&quot;&gt;String&lt;/span&gt;" style="verticalAlign=middle;align=center;vsdxID=43;fillColor=none;gradientColor=none;shape=stencil(nZBRDoQgDERP03+WHsHFe5iISyOCQdT19kIaIxq//Jtp3zTpAFaTaUYNUkwx+F6v1EYD+AUpyRkdKCYFqACrzgf9C352LfuxyWRWg1/yhT/nRE5IsZWuZtCSK8CPeI0e/hF+jV7AJM4PO7KWCyr390bSiNtEtQM=);strokeColor=none;spacingTop=-3;spacingBottom=-3;spacingLeft=-3;spacingRight=-3;labelBackgroundColor=none;rounded=0;html=1;whiteSpace=wrap;" vertex="1" parent="35">
                    <mxGeometry y="82" width="140" height="26" as="geometry"/>
                </mxCell>
                <mxCell id="40" value="&lt;font style=&quot;font-size: 11px ; font-family: &amp;#34;helvetica&amp;#34; ; color: #000000 ; direction: ltr ; letter-spacing: 0px ; line-height: 120% ; opacity: 1&quot;&gt;idCategory(FK)&lt;/font&gt;" style="verticalAlign=middle;align=center;vsdxID=44;fillColor=none;gradientColor=none;shape=stencil(nZBRDoQgDERP03+WHsHFe5iISyOCQdT19kIaIxq//Jtp3zTpAFaTaUYNUkwx+F6v1EYD+AUpyRkdKCYFqACrzgf9C352LfuxyWRWg1/yhT/nRE5IsZWuZtCSK8CPeI0e/hF+jV7AJM4PO7KWCyr390bSiNtEtQM=);strokeColor=none;spacingTop=-3;spacingBottom=-3;spacingLeft=-3;spacingRight=-3;labelBackgroundColor=none;rounded=0;html=1;whiteSpace=wrap;" vertex="1" parent="35">
                    <mxGeometry y="108" width="140" height="26" as="geometry"/>
                </mxCell>
                <mxCell id="41" value="&lt;font style=&quot;font-size: 11px ; font-family: &amp;#34;helvetica&amp;#34; ; color: #000000 ; direction: ltr ; letter-spacing: 0px ; line-height: 120% ; opacity: 1&quot;&gt;idColors(FK)&lt;/font&gt;" style="verticalAlign=middle;align=center;vsdxID=45;fillColor=none;gradientColor=none;shape=stencil(nZBRDoQgDERP03+WHsHFe5iISyOCQdT19kIaIxq//Jtp3zTpAFaTaUYNUkwx+F6v1EYD+AUpyRkdKCYFqACrzgf9C352LfuxyWRWg1/yhT/nRE5IsZWuZtCSK8CPeI0e/hF+jV7AJM4PO7KWCyr390bSiNtEtQM=);strokeColor=none;spacingTop=-3;spacingBottom=-3;spacingLeft=-3;spacingRight=-3;labelBackgroundColor=none;rounded=0;html=1;whiteSpace=wrap;" vertex="1" parent="35">
                    <mxGeometry y="134" width="140" height="26" as="geometry"/>
                </mxCell>
                <mxCell id="42" value="&lt;font style=&quot;font-size: 11px ; font-family: &amp;#34;helvetica&amp;#34; ; color: #000000 ; direction: ltr ; letter-spacing: 0px ; line-height: 120% ; opacity: 1&quot;&gt;image&amp;nbsp;&lt;/font&gt;&lt;span style=&quot;color: rgb(0 , 204 , 0) ; font-family: &amp;#34;helvetica&amp;#34; ; font-size: 11px&quot;&gt;String&lt;/span&gt;" style="verticalAlign=middle;align=center;vsdxID=46;fillColor=none;gradientColor=none;shape=stencil(nZBRDoQgDERP03+WHsHFe5iISyOCQdT19kIaIxq//Jtp3zTpAFaTaUYNUkwx+F6v1EYD+AUpyRkdKCYFqACrzgf9C352LfuxyWRWg1/yhT/nRE5IsZWuZtCSK8CPeI0e/hF+jV7AJM4PO7KWCyr390bSiNtEtQM=);strokeColor=none;spacingTop=-3;spacingBottom=-3;spacingLeft=-3;spacingRight=-3;labelBackgroundColor=none;rounded=0;html=1;whiteSpace=wrap;" vertex="1" parent="35">
                    <mxGeometry y="160" width="140" height="26" as="geometry"/>
                </mxCell>
                <mxCell id="43" value="&lt;font style=&quot;font-size: 11px ; font-family: &amp;#34;helvetica&amp;#34; ; color: #000000 ; direction: ltr ; letter-spacing: 0px ; line-height: 120% ; opacity: 1&quot;&gt;price &lt;/font&gt;&lt;font style=&quot;font-size: 11px ; font-family: &amp;#34;helvetica&amp;#34; ; direction: ltr ; letter-spacing: 0px ; line-height: 120% ; opacity: 1&quot; color=&quot;#cc0066&quot;&gt;Decimal&lt;/font&gt;" style="verticalAlign=middle;align=center;vsdxID=47;fillColor=none;gradientColor=none;shape=stencil(nZBRDoQgDERP03+WHsHFe5iISyOCQdT19kIaIxq//Jtp3zTpAFaTaUYNUkwx+F6v1EYD+AUpyRkdKCYFqACrzgf9C352LfuxyWRWg1/yhT/nRE5IsZWuZtCSK8CPeI0e/hF+jV7AJM4PO7KWCyr390bSiNtEtQM=);strokeColor=none;spacingTop=-3;spacingBottom=-3;spacingLeft=-3;spacingRight=-3;labelBackgroundColor=none;rounded=0;html=1;whiteSpace=wrap;" vertex="1" parent="35">
                    <mxGeometry y="186" width="140" height="26" as="geometry"/>
                </mxCell>
                <mxCell id="44" value="&lt;font style=&quot;font-size: 11px ; font-family: &amp;#34;helvetica&amp;#34; ; color: #000000 ; direction: ltr ; letter-spacing: 0px ; line-height: 120% ; opacity: 1&quot;&gt;stock&amp;nbsp;&lt;/font&gt;&lt;span style=&quot;color: rgb(0 , 0 , 255) ; font-family: &amp;#34;helvetica&amp;#34; ; font-size: 11px&quot;&gt;Int&lt;/span&gt;" style="verticalAlign=middle;align=center;vsdxID=48;fillColor=none;gradientColor=none;shape=stencil(nZBRDoQgDERP03+WHsHFe5iISyOCQdT19kIaIxq//Jtp3zTpAFaTaUYNUkwx+F6v1EYD+AUpyRkdKCYFqACrzgf9C352LfuxyWRWg1/yhT/nRE5IsZWuZtCSK8CPeI0e/hF+jV7AJM4PO7KWCyr390bSiNtEtQM=);strokeColor=none;spacingTop=-3;spacingBottom=-3;spacingLeft=-3;spacingRight=-3;labelBackgroundColor=none;rounded=0;html=1;whiteSpace=wrap;" vertex="1" parent="35">
                    <mxGeometry y="212" width="140" height="26" as="geometry"/>
                </mxCell>
                <mxCell id="65" style="vsdxID=6510000;fillColor=#f5f5f5;strokeColor=#666666;spacingTop=-3;spacingBottom=-3;spacingLeft=-3;spacingRight=-3;labelBackgroundColor=none;rounded=0;html=1;whiteSpace=wrap;fontColor=#333333;verticalAlign=top;" vertex="1" parent="1">
                    <mxGeometry x="570" y="248" width="150" height="130" as="geometry"/>
                </mxCell>
                <mxCell id="66" value="&lt;font style=&quot;font-size: 11px ; font-family: &amp;#34;helvetica&amp;#34; ; color: #000000 ; direction: ltr ; letter-spacing: 0px ; line-height: 120% ; opacity: 1&quot;&gt;category&lt;br&gt;&lt;br&gt;&lt;/font&gt;" style="verticalAlign=top;align=center;vsdxID=65;fillColor=#ffffff;gradientColor=none;shape=stencil(UzV2Ls5ILEhVNTIoLinKz04tz0wpyVA1dlE1MsrMy0gtyiwBslSNXVWNndPyi1LTi/JL81Ig/IJEkEoQKze/DGRCBUSfAUiHkUElhAflukFU5mTm4VSJR6GhAdlKUdUCGQhnp2Xm5EB8DZentp9griHKqSQpRnUDua4lIbTQQgrIQE8QQCFIYjJ2BQA=);strokeColor=#000000;spacingTop=-3;spacingBottom=-3;spacingLeft=-3;spacingRight=-3;labelBackgroundColor=none;rounded=0;html=1;whiteSpace=wrap;" vertex="1" parent="65">
                    <mxGeometry width="150" height="130" as="geometry"/>
                </mxCell>
                <mxCell id="67" value="&lt;font style=&quot;letter-spacing: 0px ; font-size: 11px ; font-family: &amp;#34;helvetica&amp;#34; ; color: rgb(0 , 0 , 0) ; direction: ltr ; line-height: 13.2px ; opacity: 1&quot;&gt;Id(PK)&amp;nbsp;&amp;nbsp;&lt;/font&gt;&lt;font color=&quot;#0000ff&quot; style=&quot;letter-spacing: 0px ; font-size: 11px ; font-family: &amp;#34;helvetica&amp;#34; ; direction: ltr ; line-height: 13.2px ; opacity: 1&quot;&gt;Int AutoIncrement&lt;/font&gt;" style="verticalAlign=middle;align=center;vsdxID=66;fillColor=none;gradientColor=none;shape=stencil(nZBRDoQgDERP03+WHsHFe5iISyOCQdT19kIaIxq//Jtp3zTpAFaTaUYNUkwx+F6v1EYD+AUpyRkdKCYFqACrzgf9C352LfuxyWRWg1/yhT/nRE5IsZWuZtCSK8CPeI0e/hF+jV7AJM4PO7KWCyr390bSiNtEtQM=);strokeColor=none;spacingTop=-3;spacingBottom=-3;spacingLeft=-3;spacingRight=-3;labelBackgroundColor=none;rounded=0;html=1;whiteSpace=wrap;" vertex="1" parent="65">
                    <mxGeometry y="26" width="150" height="26" as="geometry"/>
                </mxCell>
                <mxCell id="68" value="&lt;font style=&quot;font-size: 11px ; font-family: &amp;#34;helvetica&amp;#34; ; color: #000000 ; direction: ltr ; letter-spacing: 0px ; line-height: 120% ; opacity: 1&quot;&gt;name&amp;nbsp;&lt;/font&gt;&lt;span style=&quot;color: rgb(0 , 204 , 0) ; font-family: &amp;#34;helvetica&amp;#34; ; font-size: 11px&quot;&gt;String&lt;/span&gt;" style="verticalAlign=middle;align=center;vsdxID=67;fillColor=none;gradientColor=none;shape=stencil(nZBRDoQgDERP03+WHsHFe5iISyOCQdT19kIaIxq//Jtp3zTpAFaTaUYNUkwx+F6v1EYD+AUpyRkdKCYFqACrzgf9C352LfuxyWRWg1/yhT/nRE5IsZWuZtCSK8CPeI0e/hF+jV7AJM4PO7KWCyr390bSiNtEtQM=);strokeColor=none;spacingTop=-3;spacingBottom=-3;spacingLeft=-3;spacingRight=-3;labelBackgroundColor=none;rounded=0;html=1;whiteSpace=wrap;" vertex="1" parent="65">
                    <mxGeometry y="52" width="150" height="26" as="geometry"/>
                </mxCell>
                <mxCell id="71" style="vsdxID=7010000;fillColor=#f5f5f5;strokeColor=#666666;spacingTop=-3;spacingBottom=-3;spacingLeft=-3;spacingRight=-3;labelBackgroundColor=none;rounded=0;html=1;whiteSpace=wrap;fontColor=#333333;verticalAlign=top;" vertex="1" parent="1">
                    <mxGeometry x="560" y="80" width="150" height="130" as="geometry"/>
                </mxCell>
                <mxCell id="72" value="&lt;font style=&quot;font-size:11px;font-family:Helvetica;color:#000000;direction:ltr;letter-spacing:0px;line-height:120%;opacity:1&quot;&gt;colors&lt;/font&gt;" style="verticalAlign=top;align=center;vsdxID=70;fillColor=#ffffff;gradientColor=none;shape=stencil(UzV2Ls5ILEhVNTIoLinKz04tz0wpyVA1dlE1MsrMy0gtyiwBslSNXVWNndPyi1LTi/JL81Ig/IJEkEoQKze/DGRCBUSfAUiHkUElhAflukFU5mTm4VSJR6GhAdlKUdUCGQhnp2Xm5EB8DZentp9griHKqSQpRnUDua4lIbTQQgrIQE8QQCFIYjJ2BQA=);strokeColor=#000000;spacingTop=-3;spacingBottom=-3;spacingLeft=-3;spacingRight=-3;labelBackgroundColor=none;rounded=0;html=1;whiteSpace=wrap;" vertex="1" parent="71">
                    <mxGeometry width="150" height="130" as="geometry"/>
                </mxCell>
                <mxCell id="73" value="&lt;font style=&quot;letter-spacing: 0px ; font-size: 11px ; font-family: &amp;#34;helvetica&amp;#34; ; color: rgb(0 , 0 , 0) ; direction: ltr ; line-height: 13.2px ; opacity: 1&quot;&gt;Id(PK)&amp;nbsp;&amp;nbsp;&lt;/font&gt;&lt;font color=&quot;#0000ff&quot; style=&quot;letter-spacing: 0px ; font-size: 11px ; font-family: &amp;#34;helvetica&amp;#34; ; direction: ltr ; line-height: 13.2px ; opacity: 1&quot;&gt;Int AutoIncrement&lt;/font&gt;" style="verticalAlign=middle;align=center;vsdxID=71;fillColor=none;gradientColor=none;shape=stencil(nZBRDoQgDERP03+WHsHFe5iISyOCQdT19kIaIxq//Jtp3zTpAFaTaUYNUkwx+F6v1EYD+AUpyRkdKCYFqACrzgf9C352LfuxyWRWg1/yhT/nRE5IsZWuZtCSK8CPeI0e/hF+jV7AJM4PO7KWCyr390bSiNtEtQM=);strokeColor=none;spacingTop=-3;spacingBottom=-3;spacingLeft=-3;spacingRight=-3;labelBackgroundColor=none;rounded=0;html=1;whiteSpace=wrap;" vertex="1" parent="71">
                    <mxGeometry y="26" width="150" height="26" as="geometry"/>
                </mxCell>
                <mxCell id="74" value="&lt;font style=&quot;font-size: 11px ; font-family: &amp;#34;helvetica&amp;#34; ; color: #000000 ; direction: ltr ; letter-spacing: 0px ; line-height: 120% ; opacity: 1&quot;&gt;name&amp;nbsp;&lt;/font&gt;&lt;span style=&quot;color: rgb(0 , 204 , 0) ; font-family: &amp;#34;helvetica&amp;#34; ; font-size: 11px&quot;&gt;String&lt;/span&gt;" style="verticalAlign=middle;align=center;vsdxID=72;fillColor=none;gradientColor=none;shape=stencil(nZBRDoQgDERP03+WHsHFe5iISyOCQdT19kIaIxq//Jtp3zTpAFaTaUYNUkwx+F6v1EYD+AUpyRkdKCYFqACrzgf9C352LfuxyWRWg1/yhT/nRE5IsZWuZtCSK8CPeI0e/hF+jV7AJM4PO7KWCyr390bSiNtEtQM=);strokeColor=none;spacingTop=-3;spacingBottom=-3;spacingLeft=-3;spacingRight=-3;labelBackgroundColor=none;rounded=0;html=1;whiteSpace=wrap;" vertex="1" parent="71">
                    <mxGeometry y="52" width="150" height="26" as="geometry"/>
                </mxCell>
                <mxCell id="WWabw4jxBIygo0n_5Nug-91" style="vsdxID=1010000;fillColor=#f5f5f5;strokeColor=#666666;spacingTop=-3;spacingBottom=-3;spacingLeft=-3;spacingRight=-3;labelBackgroundColor=none;rounded=0;html=1;whiteSpace=wrap;fontColor=#333333;" vertex="1" parent="1">
                    <mxGeometry x="290" y="360" width="140" height="238" as="geometry"/>
                </mxCell>
                <mxCell id="WWabw4jxBIygo0n_5Nug-92" value="&lt;font style=&quot;font-size: 11px ; font-family: &amp;#34;helvetica&amp;#34; ; color: #000000 ; direction: ltr ; letter-spacing: 0px ; line-height: 120% ; opacity: 1&quot;&gt;cart&lt;br&gt;&lt;/font&gt;" style="verticalAlign=top;align=center;vsdxID=10;fillColor=#ffffff;gradientColor=none;shape=stencil(UzV2Ls5ILEhVNTIoLinKz04tz0wpyVA1dlE1MsrMy0gtyiwBslSNXVWNndPyi1LTi/JL81Ig/IJEkEoQKze/DGRCBUSfAUiHkUElhGdopGdmCBZxgyjOyczDqdgAt0JDA7KVYjgByEA4Pi0zJwfid7g8DXwGcxNxDiZJMbozKHAzaSGHFmpABnoSAQpBkpexKwA=);strokeColor=#000000;spacingTop=-3;spacingBottom=-3;spacingLeft=-3;spacingRight=-3;labelBackgroundColor=none;rounded=0;html=1;whiteSpace=wrap;" vertex="1" parent="WWabw4jxBIygo0n_5Nug-91">
                    <mxGeometry width="140" height="238" as="geometry"/>
                </mxCell>
                <mxCell id="WWabw4jxBIygo0n_5Nug-93" value="&lt;font style=&quot;font-size: 11px ; font-family: &amp;#34;helvetica&amp;#34; ; color: #000000 ; direction: ltr ; letter-spacing: 0px ; line-height: 120% ; opacity: 1&quot;&gt;&lt;font style=&quot;letter-spacing: 0px ; direction: ltr ; line-height: 13.2px ; opacity: 1&quot;&gt;Id(PK)&amp;nbsp;&amp;nbsp;&lt;/font&gt;&lt;font color=&quot;#0000ff&quot; style=&quot;letter-spacing: 0px ; direction: ltr ; line-height: 13.2px ; opacity: 1&quot;&gt;Int AutoIncrement&lt;/font&gt;&lt;br&gt;&lt;/font&gt;" style="verticalAlign=middle;align=center;vsdxID=41;fillColor=none;gradientColor=none;shape=stencil(nZBRDoQgDERP03+WHsHFe5iISyOCQdT19kIaIxq//Jtp3zTpAFaTaUYNUkwx+F6v1EYD+AUpyRkdKCYFqACrzgf9C352LfuxyWRWg1/yhT/nRE5IsZWuZtCSK8CPeI0e/hF+jV7AJM4PO7KWCyr390bSiNtEtQM=);strokeColor=none;spacingTop=-3;spacingBottom=-3;spacingLeft=-3;spacingRight=-3;labelBackgroundColor=none;rounded=0;html=1;whiteSpace=wrap;" vertex="1" parent="WWabw4jxBIygo0n_5Nug-91">
                    <mxGeometry y="30" width="140" height="26" as="geometry"/>
                </mxCell>
                <mxCell id="WWabw4jxBIygo0n_5Nug-94" value="&lt;font style=&quot;font-size: 11px ; font-family: &amp;#34;helvetica&amp;#34; ; color: #000000 ; direction: ltr ; letter-spacing: 0px ; line-height: 120% ; opacity: 1&quot;&gt;userId(FK) &lt;/font&gt;&lt;font style=&quot;font-size: 11px ; font-family: &amp;#34;helvetica&amp;#34; ; direction: ltr ; letter-spacing: 0px ; line-height: 120% ; opacity: 1&quot;&gt;&lt;font color=&quot;#00cc00&quot;&gt;Int&lt;/font&gt;&lt;br&gt;&lt;/font&gt;" style="verticalAlign=middle;align=center;vsdxID=42;fillColor=none;gradientColor=none;shape=stencil(nZBRDoQgDERP03+WHsHFe5iISyOCQdT19kIaIxq//Jtp3zTpAFaTaUYNUkwx+F6v1EYD+AUpyRkdKCYFqACrzgf9C352LfuxyWRWg1/yhT/nRE5IsZWuZtCSK8CPeI0e/hF+jV7AJM4PO7KWCyr390bSiNtEtQM=);strokeColor=none;spacingTop=-3;spacingBottom=-3;spacingLeft=-3;spacingRight=-3;labelBackgroundColor=none;rounded=0;html=1;whiteSpace=wrap;" vertex="1" parent="WWabw4jxBIygo0n_5Nug-91">
                    <mxGeometry y="56" width="140" height="26" as="geometry"/>
                </mxCell>
                <mxCell id="WWabw4jxBIygo0n_5Nug-95" value="&lt;font style=&quot;font-size: 11px ; font-family: &amp;#34;helvetica&amp;#34; ; color: #000000 ; direction: ltr ; letter-spacing: 0px ; line-height: 120% ; opacity: 1&quot;&gt;productId(FK) &lt;/font&gt;&lt;font style=&quot;font-size: 11px ; font-family: &amp;#34;helvetica&amp;#34; ; direction: ltr ; letter-spacing: 0px ; line-height: 120% ; opacity: 1&quot; color=&quot;#00cc00&quot;&gt;Int&lt;/font&gt;" style="verticalAlign=middle;align=center;vsdxID=43;fillColor=none;gradientColor=none;shape=stencil(nZBRDoQgDERP03+WHsHFe5iISyOCQdT19kIaIxq//Jtp3zTpAFaTaUYNUkwx+F6v1EYD+AUpyRkdKCYFqACrzgf9C352LfuxyWRWg1/yhT/nRE5IsZWuZtCSK8CPeI0e/hF+jV7AJM4PO7KWCyr390bSiNtEtQM=);strokeColor=none;spacingTop=-3;spacingBottom=-3;spacingLeft=-3;spacingRight=-3;labelBackgroundColor=none;rounded=0;html=1;whiteSpace=wrap;" vertex="1" parent="WWabw4jxBIygo0n_5Nug-91">
                    <mxGeometry y="84" width="140" height="26" as="geometry"/>
                </mxCell>
                <mxCell id="WWabw4jxBIygo0n_5Nug-101" value="" style="edgeStyle=orthogonalEdgeStyle;rounded=0;orthogonalLoop=1;jettySize=auto;html=1;fontColor=#000000;" edge="1" parent="WWabw4jxBIygo0n_5Nug-91" source="WWabw4jxBIygo0n_5Nug-98" target="WWabw4jxBIygo0n_5Nug-95">
                    <mxGeometry relative="1" as="geometry"/>
                </mxCell>
                <mxCell id="WWabw4jxBIygo0n_5Nug-102" value="" style="edgeStyle=orthogonalEdgeStyle;rounded=0;orthogonalLoop=1;jettySize=auto;html=1;fontColor=#000000;" edge="1" parent="WWabw4jxBIygo0n_5Nug-91" source="WWabw4jxBIygo0n_5Nug-98" target="WWabw4jxBIygo0n_5Nug-100">
                    <mxGeometry relative="1" as="geometry"/>
                </mxCell>
                <mxCell id="WWabw4jxBIygo0n_5Nug-98" value="&lt;font style=&quot;font-size: 11px ; font-family: &amp;#34;helvetica&amp;#34; ; color: #000000 ; direction: ltr ; letter-spacing: 0px ; line-height: 120% ; opacity: 1&quot;&gt;date &lt;/font&gt;&lt;font style=&quot;font-size: 11px ; font-family: &amp;#34;helvetica&amp;#34; ; direction: ltr ; letter-spacing: 0px ; line-height: 120% ; opacity: 1&quot; color=&quot;#9933ff&quot;&gt;date&lt;/font&gt;" style="verticalAlign=middle;align=center;vsdxID=46;fillColor=none;gradientColor=none;shape=stencil(nZBRDoQgDERP03+WHsHFe5iISyOCQdT19kIaIxq//Jtp3zTpAFaTaUYNUkwx+F6v1EYD+AUpyRkdKCYFqACrzgf9C352LfuxyWRWg1/yhT/nRE5IsZWuZtCSK8CPeI0e/hF+jV7AJM4PO7KWCyr390bSiNtEtQM=);strokeColor=none;spacingTop=-3;spacingBottom=-3;spacingLeft=-3;spacingRight=-3;labelBackgroundColor=none;rounded=0;html=1;whiteSpace=wrap;" vertex="1" parent="WWabw4jxBIygo0n_5Nug-91">
                    <mxGeometry y="110" width="140" height="26" as="geometry"/>
                </mxCell>
                <mxCell id="WWabw4jxBIygo0n_5Nug-99" value="&lt;font style=&quot;font-size: 11px ; font-family: &amp;#34;helvetica&amp;#34; ; color: #000000 ; direction: ltr ; letter-spacing: 0px ; line-height: 120% ; opacity: 1&quot;&gt;price &lt;/font&gt;&lt;font style=&quot;font-size: 11px ; font-family: &amp;#34;helvetica&amp;#34; ; direction: ltr ; letter-spacing: 0px ; line-height: 120% ; opacity: 1&quot; color=&quot;#cc0066&quot;&gt;Decimal&lt;/font&gt;" style="verticalAlign=middle;align=center;vsdxID=47;fillColor=none;gradientColor=none;shape=stencil(nZBRDoQgDERP03+WHsHFe5iISyOCQdT19kIaIxq//Jtp3zTpAFaTaUYNUkwx+F6v1EYD+AUpyRkdKCYFqACrzgf9C352LfuxyWRWg1/yhT/nRE5IsZWuZtCSK8CPeI0e/hF+jV7AJM4PO7KWCyr390bSiNtEtQM=);strokeColor=none;spacingTop=-3;spacingBottom=-3;spacingLeft=-3;spacingRight=-3;labelBackgroundColor=none;rounded=0;html=1;whiteSpace=wrap;" vertex="1" parent="WWabw4jxBIygo0n_5Nug-91">
                    <mxGeometry y="136" width="140" height="26" as="geometry"/>
                </mxCell>
                <mxCell id="WWabw4jxBIygo0n_5Nug-100" value="&lt;font style=&quot;font-size: 11px ; font-family: &amp;#34;helvetica&amp;#34; ; color: #000000 ; direction: ltr ; letter-spacing: 0px ; line-height: 120% ; opacity: 1&quot;&gt;quantity&amp;nbsp;&lt;/font&gt;&lt;span style=&quot;color: rgb(0 , 204 , 0) ; font-family: &amp;#34;helvetica&amp;#34; ; font-size: 11px&quot;&gt;Int&lt;/span&gt;" style="verticalAlign=middle;align=center;vsdxID=48;fillColor=none;gradientColor=none;shape=stencil(nZBRDoQgDERP03+WHsHFe5iISyOCQdT19kIaIxq//Jtp3zTpAFaTaUYNUkwx+F6v1EYD+AUpyRkdKCYFqACrzgf9C352LfuxyWRWg1/yhT/nRE5IsZWuZtCSK8CPeI0e/hF+jV7AJM4PO7KWCyr390bSiNtEtQM=);strokeColor=none;spacingTop=-3;spacingBottom=-3;spacingLeft=-3;spacingRight=-3;labelBackgroundColor=none;rounded=0;html=1;whiteSpace=wrap;" vertex="1" parent="WWabw4jxBIygo0n_5Nug-91">
                    <mxGeometry y="170" width="140" height="26" as="geometry"/>
                </mxCell>
                <mxCell id="WWabw4jxBIygo0n_5Nug-105" value="" style="swimlane;startSize=0;labelBackgroundColor=#FFFFFF;fontColor=#000000;fillColor=#FFFFFF;align=center;verticalAlign=top;" vertex="1" parent="1">
                    <mxGeometry x="480" y="490" width="200" height="216" as="geometry"/>
                </mxCell>
                <mxCell id="WWabw4jxBIygo0n_5Nug-107" value="" style="rounded=0;whiteSpace=wrap;html=1;labelBackgroundColor=#FFFFFF;fontColor=#000000;fillColor=#FFFFFF;align=center;verticalAlign=top;" vertex="1" parent="WWabw4jxBIygo0n_5Nug-105">
                    <mxGeometry x="20" y="10" width="120" height="60" as="geometry"/>
                </mxCell>
                <mxCell id="WWabw4jxBIygo0n_5Nug-108" value="" style="rounded=0;whiteSpace=wrap;html=1;labelBackgroundColor=#FFFFFF;fontColor=#000000;fillColor=#FFFFFF;align=center;verticalAlign=top;" vertex="1" parent="WWabw4jxBIygo0n_5Nug-105">
                    <mxGeometry x="20" y="78" width="120" height="60" as="geometry"/>
                </mxCell>
                <mxCell id="WWabw4jxBIygo0n_5Nug-109" value="" style="rounded=0;whiteSpace=wrap;html=1;labelBackgroundColor=#FFFFFF;fontColor=#000000;fillColor=#FFFFFF;align=center;verticalAlign=top;" vertex="1" parent="WWabw4jxBIygo0n_5Nug-105">
                    <mxGeometry x="20" y="150" width="120" height="60" as="geometry"/>
                </mxCell>
                <mxCell id="WWabw4jxBIygo0n_5Nug-111" value="" style="curved=1;endArrow=classic;html=1;fontColor=#000000;" edge="1" parent="1">
                    <mxGeometry width="50" height="50" relative="1" as="geometry">
                        <mxPoint x="370" y="220" as="sourcePoint"/>
                        <mxPoint x="420" y="170" as="targetPoint"/>
                        <Array as="points">
                            <mxPoint x="420" y="220"/>
                            <mxPoint x="370" y="170"/>
                        </Array>
                    </mxGeometry>
                </mxCell>
                <mxCell id="WWabw4jxBIygo0n_5Nug-119" style="edgeStyle=orthogonalEdgeStyle;rounded=0;orthogonalLoop=1;jettySize=auto;html=1;entryX=1;entryY=0.346;entryDx=0;entryDy=0;entryPerimeter=0;fontColor=#000000;fillColor=#d5e8d4;strokeColor=#82b366;" edge="1" parent="1" source="WWabw4jxBIygo0n_5Nug-94" target="7">
                    <mxGeometry relative="1" as="geometry"/>
                </mxCell>
                <mxCell id="WWabw4jxBIygo0n_5Nug-120" style="edgeStyle=orthogonalEdgeStyle;rounded=0;orthogonalLoop=1;jettySize=auto;html=1;fontColor=#000000;entryX=0.998;entryY=0.473;entryDx=0;entryDy=0;entryPerimeter=0;fillColor=#fff2cc;strokeColor=#d6b656;" edge="1" parent="1" source="WWabw4jxBIygo0n_5Nug-95" target="37">
                    <mxGeometry relative="1" as="geometry">
                        <mxPoint x="510" y="50" as="targetPoint"/>
                        <Array as="points">
                            <mxPoint x="500" y="455"/>
                            <mxPoint x="500" y="52"/>
                        </Array>
                    </mxGeometry>
                </mxCell>
                <mxCell id="WWabw4jxBIygo0n_5Nug-121" style="edgeStyle=orthogonalEdgeStyle;rounded=0;orthogonalLoop=1;jettySize=auto;html=1;entryX=-0.006;entryY=0.532;entryDx=0;entryDy=0;entryPerimeter=0;fontColor=#000000;fillColor=#f8cecc;strokeColor=#b85450;" edge="1" parent="1" source="WWabw4jxBIygo0n_5Nug-99" target="43">
                    <mxGeometry relative="1" as="geometry">
                        <Array as="points">
                            <mxPoint x="270" y="509"/>
                            <mxPoint x="270" y="210"/>
                        </Array>
                    </mxGeometry>
                </mxCell>
                <mxCell id="WWabw4jxBIygo0n_5Nug-122" style="edgeStyle=orthogonalEdgeStyle;rounded=0;orthogonalLoop=1;jettySize=auto;html=1;entryX=1.004;entryY=0.533;entryDx=0;entryDy=0;entryPerimeter=0;fontColor=#000000;fillColor=#f8cecc;strokeColor=#b85450;" edge="1" parent="1" source="66" target="40">
                    <mxGeometry relative="1" as="geometry"/>
                </mxCell>
                <mxCell id="WWabw4jxBIygo0n_5Nug-123" style="edgeStyle=orthogonalEdgeStyle;rounded=0;orthogonalLoop=1;jettySize=auto;html=1;entryX=1;entryY=0.615;entryDx=0;entryDy=0;entryPerimeter=0;fontColor=#000000;fillColor=#fff2cc;strokeColor=#d6b656;" edge="1" parent="1" source="73" target="41">
                    <mxGeometry relative="1" as="geometry"/>
                </mxCell>
            </root>
        </mxGraphModel>
    </diagram>
    <diagram id="Bt47bYyQK6JN1NjidjTB" name="Page-2">
        <mxGraphModel dx="289" dy="251" grid="1" gridSize="10" guides="1" tooltips="1" connect="1" arrows="1" fold="1" page="1" pageScale="1" pageWidth="827" pageHeight="1169" math="0" shadow="0">
            <root>
                <mxCell id="baWVPQHO0muvgcvnWEQv-0"/>
                <mxCell id="baWVPQHO0muvgcvnWEQv-1" parent="baWVPQHO0muvgcvnWEQv-0"/>
            </root>
        </mxGraphModel>
    </diagram>
</mxfile>